<svg width="20" height="20" viewBox="0 0 20 20" fill="none" xmlns="http://www.w3.org/2000/svg">
<g clip-path="url(#clip0_6060_12698)">
<path d="M1.22668 11.1308C1.61461 12.0436 2.17853 12.8711 2.88624 13.5659C3.59395 14.2608 4.43159 14.8095 5.35135 15.1806C6.2711 15.5517 7.25494 15.7381 8.24671 15.729C9.23848 15.7199 10.2187 15.5156 11.1315 15.1276C12.0443 14.7397 12.8718 14.1758 13.5667 13.4681C14.2615 12.7604 14.8102 11.9227 15.1813 11.003C15.5524 10.0832 15.7388 9.09936 15.7297 8.10759C15.7206 7.11582 15.5163 6.13555 15.1283 5.22276C14.7404 4.30996 14.1765 3.48251 13.4688 2.78765C12.7611 2.09278 11.9234 1.54412 11.0037 1.17298C10.0839 0.801843 9.10007 0.615498 8.1083 0.624585C7.11653 0.633672 6.13627 0.838014 5.22347 1.22594C4.31067 1.61387 3.48322 2.17779 2.78836 2.88551C2.0935 3.59322 1.54484 4.43086 1.17371 5.35062C0.80257 6.27037 0.616227 7.25422 0.625317 8.24599C0.634407 9.23776 0.838752 10.218 1.22668 11.1308Z" stroke="#131313" stroke-width="1.5" stroke-linecap="round" stroke-linejoin="round"/>
<path d="M1.22668 11.1308C1.61461 12.0436 2.17853 12.8711 2.88624 13.5659C3.59395 14.2608 4.43159 14.8095 5.35135 15.1806C6.2711 15.5517 7.25494 15.7381 8.24671 15.729C9.23848 15.7199 10.2187 15.5156 11.1315 15.1276C12.0443 14.7397 12.8718 14.1758 13.5667 13.4681C14.2615 12.7604 14.8102 11.9227 15.1813 11.003C15.5524 10.0832 15.7388 9.09936 15.7297 8.10759C15.7206 7.11582 15.5163 6.13555 15.1283 5.22276C14.7404 4.30996 14.1765 3.48251 13.4688 2.78765C12.7611 2.09278 11.9234 1.54412 11.0037 1.17298C10.0839 0.801843 9.10007 0.615498 8.1083 0.624585C7.11653 0.633672 6.13627 0.838014 5.22347 1.22594C4.31067 1.61387 3.48322 2.17779 2.78836 2.88551C2.0935 3.59322 1.54484 4.43086 1.17371 5.35062C0.80257 6.27037 0.616227 7.25422 0.625317 8.24599C0.634407 9.23776 0.838752 10.218 1.22668 11.1308Z" stroke="black" stroke-opacity="0.2" stroke-width="1.5" stroke-linecap="round" stroke-linejoin="round"/>
<path d="M1.22668 11.1308C1.61461 12.0436 2.17853 12.8711 2.88624 13.5659C3.59395 14.2608 4.43159 14.8095 5.35135 15.1806C6.2711 15.5517 7.25494 15.7381 8.24671 15.729C9.23848 15.7199 10.2187 15.5156 11.1315 15.1276C12.0443 14.7397 12.8718 14.1758 13.5667 13.4681C14.2615 12.7604 14.8102 11.9227 15.1813 11.003C15.5524 10.0832 15.7388 9.09936 15.7297 8.10759C15.7206 7.11582 15.5163 6.13555 15.1283 5.22276C14.7404 4.30996 14.1765 3.48251 13.4688 2.78765C12.7611 2.09278 11.9234 1.54412 11.0037 1.17298C10.0839 0.801843 9.10007 0.615498 8.1083 0.624585C7.11653 0.633672 6.13627 0.838014 5.22347 1.22594C4.31067 1.61387 3.48322 2.17779 2.78836 2.88551C2.0935 3.59322 1.54484 4.43086 1.17371 5.35062C0.80257 6.27037 0.616227 7.25422 0.625317 8.24599C0.634407 9.23776 0.838752 10.218 1.22668 11.1308Z" stroke="black" stroke-opacity="0.2" stroke-width="1.5" stroke-linecap="round" stroke-linejoin="round"/>
<path d="M1.22668 11.1308C1.61461 12.0436 2.17853 12.8711 2.88624 13.5659C3.59395 14.2608 4.43159 14.8095 5.35135 15.1806C6.2711 15.5517 7.25494 15.7381 8.24671 15.729C9.23848 15.7199 10.2187 15.5156 11.1315 15.1276C12.0443 14.7397 12.8718 14.1758 13.5667 13.4681C14.2615 12.7604 14.8102 11.9227 15.1813 11.003C15.5524 10.0832 15.7388 9.09936 15.7297 8.10759C15.7206 7.11582 15.5163 6.13555 15.1283 5.22276C14.7404 4.30996 14.1765 3.48251 13.4688 2.78765C12.7611 2.09278 11.9234 1.54412 11.0037 1.17298C10.0839 0.801843 9.10007 0.615498 8.1083 0.624585C7.11653 0.633672 6.13627 0.838014 5.22347 1.22594C4.31067 1.61387 3.48322 2.17779 2.78836 2.88551C2.0935 3.59322 1.54484 4.43086 1.17371 5.35062C0.80257 6.27037 0.616227 7.25422 0.625317 8.24599C0.634407 9.23776 0.838752 10.218 1.22668 11.1308Z" stroke="black" stroke-opacity="0.2" stroke-width="1.5" stroke-linecap="round" stroke-linejoin="round"/>
<path d="M13.5156 13.5166L19.3731 19.3749" stroke="#131313" stroke-width="1.5" stroke-linecap="round" stroke-linejoin="round"/>
<path d="M13.5156 13.5166L19.3731 19.3749" stroke="black" stroke-opacity="0.2" stroke-width="1.5" stroke-linecap="round" stroke-linejoin="round"/>
<path d="M13.5156 13.5166L19.3731 19.3749" stroke="black" stroke-opacity="0.2" stroke-width="1.5" stroke-linecap="round" stroke-linejoin="round"/>
<path d="M13.5156 13.5166L19.3731 19.3749" stroke="black" stroke-opacity="0.2" stroke-width="1.5" stroke-linecap="round" stroke-linejoin="round"/>
</g>
<defs>
<clipPath id="clip0_6060_12698">
<rect width="20" height="20" fill="white"/>
</clipPath>
</defs>
</svg>
